<?xml version="1.0" encoding="utf-8"?>
<svg version="1.1" xmlns="http://www.w3.org/2000/svg" x="0px" y="0px" viewBox="0 0 400 400" xml:space="preserve">
<style type="text/css">
	.st0{fill:#DEC8B1;}
	.st1{fill:#365D3F;}
</style>
<g>
	<path class="st0" d="M290.2,158.5c15.2,4.7,28.4,12.1,35.2,27.6c2.4,5.4,3.9,10.9,3.9,16.9c-0.1,44.8,0.1,89.6-0.1,134.4
		c-0.1,21-19.4,40.1-40.3,41.1c-55,2.7-110,0.7-165,1.2c-21.1,0.2-39.4-5.7-49.1-26.6c-2.6-5.6-4-11.5-4-17.8
		c0-43.9-0.1-87.8,0-131.7c0-19.3,12.6-36.5,31.2-42c6-1.8,7.5-4.5,7.3-10.3c-0.4-14-0.3-28.1-0.1-42.1c0-3.4-0.9-7.1,1.5-10.2
		c0,18,0.1,36-0.1,54c-0.1,4.8,1.1,6.9,6.3,6.6c9.3-0.5,18.6,0.6,27.8-0.9c36.9,0,73.8,0,110.7,0
		C267,159.7,278.6,159.9,290.2,158.5z M200.9,325.4c18.6,0.1,20-1.7,17.7-20.2c-1-8.1-1.3-16.3-2.2-24.4c-0.5-4.8,0.8-8.4,4.6-11.5
		c7.6-6.2,10.3-14.4,9.9-24.2c-0.6-13.8-8.9-25-21.8-28.4c-14.2-3.8-28.3,1.4-35.1,12.9c-7.8,13.1-7.1,28.9,3.3,37.8
		c7.1,6.1,8.3,12,6.3,20.5c-1.8,7.9-1.9,16.2-2.2,24.4c-0.4,9.1,3.1,12.5,12.4,13C196.2,325.5,198.6,325.4,200.9,325.4z"/>
	<path class="st1" d="M143.3,158.7c-9.3,1.5-18.8,0.3-28.1,0.9c-5.2,0.3-6.4-1.8-6.3-6.6c0.2-18,0.1-36,0.1-54
		c6.2-35.3,25.2-61.1,59.6-73.4C227.2,4.6,288.1,45,289.9,109.4c0.5,16.4,0.2,32.8,0.2,49.1c-11.7,1.4-23.4,1.1-35.1,0.1
		c0-16.1,0.2-32.1-0.1-48.2c-0.2-13.8-5.8-25.9-14.8-36c-15.2-17-38.8-22.4-59.7-14.7c-22.2,8.2-36.9,28.3-37.2,51.6
		C143.1,127.1,143.3,142.9,143.3,158.7z"/>
</g>
</svg>
