<?xml version="1.0" encoding="utf-8"?>
<svg version="1.1" id="Capa_1" xmlns="http://www.w3.org/2000/svg" xmlns:xlink="http://www.w3.org/1999/xlink" x="0px" y="0px"
	 viewBox="0 0 400 400" style="enable-background:new 0 0 400 400;" xml:space="preserve">
<style type="text/css">
	.st0{fill:#D2C1AF;}
	.st1{fill:#39342C;}
	.st2{fill:#637D5E;}
	.st3{fill:#85B684;}
</style>
<g>
	<path class="st0" d="M273.2,202c1.7,35.2-29.7,73.9-73.9,73.1c-40.9-0.7-73.5-34.1-72.5-75.3c1-39.6,32-73.2,74.1-72.8
		C242.4,127.4,274.4,162.3,273.2,202z"/>
	<path class="st1" d="M171.7,94.5c-5.5,7.7-6.3,15.3-3.7,23.3c1,3.1,0.4,4.8-2.7,6c-2.7,1.1-5.5,2.4-7.8,4.2c-3.3,2.7-4.9,2-6.7-1.7
		c-11-22.5-5-50.4,13.7-63.7c3.7-2.6,5.3-2.9,7.6,1.8c5.6,11.3,15.6,16.8,28.1,16.7c12.7-0.1,22.6-5.8,28.3-17.3
		c1.9-4,3.4-3.6,6.4-1.7c15.3,9.9,23.3,31.2,19.1,51.1c-1.1,5.3-2.9,10.4-5.3,15.3c-1,2.1-2.1,2.9-3.9,0.9c-0.2-0.2-0.5-0.4-0.8-0.6
		c-3.5-2.7-8.9-3.5-11.2-6.8c-2.3-3.3,1.4-8.2,1.2-12.6c-0.1-5.4-1.7-10.2-5.1-14.9c-1.1,1.6-1.9,3-2.9,4.3
		c-4.1,5.4-9.3,8.7-16.4,8.3c-4.8-0.3-9.6-0.4-14.3,0.1C184.7,108.3,176.9,104.5,171.7,94.5z"/>
	<path class="st2" d="M171.6,306.2c1-1.5,1.8-2.8,2.6-4c4-5.5,9-9,16.2-8.6c4.8,0.2,9.6,0.5,14.3,0c10.6-1,18.8,2.3,23.9,12.4
		c5.3-7.1,6.2-14.4,3.8-22.2c-0.9-3-0.7-4.7,2.6-6c3.6-1.5,6.9-3.8,10.2-5.9c1.5-1,2.5-1.3,3.5,0.6c10,20.4,9.9,49.4-13.9,66.4
		c-2.9,2.1-4.2,2.2-6-1.4c-5.9-11.8-15.6-18.1-28.9-18c-13.2,0.1-23,6.5-28.8,18.2c-1.7,3.5-3,2.8-5.4,1.2
		C149.1,328,141.6,307,147,285.3c0.9-3.7,2.4-7.2,3.6-10.7c1-3,2.4-4.3,5.6-1.9c2.9,2.1,6.2,3.8,9.5,5.2c2.8,1.2,3.1,2.6,2.2,5.3
		C165.1,291.4,166,299,171.6,306.2z"/>
	<path class="st3" d="M296.7,142.4c13.6-0.2,25.9,4.9,35.3,16.4c1.8,2.2,2.5,3.4-0.9,5.2c-15.8,8.8-21.9,24-16.5,39.9
		c3,9,9.5,15.1,17.9,18.6c4.2,1.8,3.2,3.2,1.4,5.8c-14,19.9-38.1,22.2-57.5,14c-2.2-0.9-2.8-2.1-1.4-4.1c0.5-0.8,1.1-1.7,1.4-2.6
		c1.9-7.3,5.2-12.6,14.1-9.9c0.8,0.2,1.9-0.4,2.8-0.7c2.1-0.7,5.1-1.1,5.6-3.4c0.4-1.9-2.7-2.4-4.1-3.7c-4.5-3.9-7.2-8.4-7-14.6
		c0.1-5.3,0.1-10.6-0.3-15.8c-0.7-7.8,1.9-13.9,8.3-18.3c2.9-2,2.3-3-0.6-4c-5.2-2-10.4-1.5-15.5,0.1c-2.6,0.8-3.7,0.3-4.8-2.3
		c-1.3-3.1-3.2-6.1-5.3-8.9c-1.7-2.3-1.1-3.2,1.1-4.5C276.9,145.9,285.3,143.3,296.7,142.4z"/>
	<path class="st0" d="M100.6,221.5c5.6,3.8,10.8,4.9,16.2,3.8c2.7-0.5,3.8-0.3,4.4,2.6c0.8,3.7,2.5,7.1,4.5,10.4
		c1.2,2.1,0.7,3.2-1.4,4.1c-20.7,9.2-44.2,5.1-57.7-13.8c-2.3-3.2-2.1-4.7,1.7-6.4c11.4-5.3,17.9-14.6,18.7-26.9
		c0.9-13.7-5.1-24.3-17.2-30.9c-3.9-2.1-3.5-3.7-1.1-6.6c15.5-18.9,43.1-19,61.1-8.2c1.9,1.1,2.7,2.4,1.2,4.4
		c-0.1,0.1-0.2,0.3-0.3,0.4c-3.2,7.6-6.9,13.9-17.1,10.2c-3.2-1.1-7.1-0.2-10.6,3c9.8,5.6,10.6,14.8,10,24.5c-0.1,0.8,0,1.6,0,2.5
		C113.7,205.5,112.8,215.8,100.6,221.5z"/>
	<path class="st1" d="M173.1,47.2C173.2,32,185.2,20,200.4,20c14.8,0,27.1,12.6,27,27.6c-0.1,15.2-12.7,27.4-28,27.2
		C184.8,74.7,173,62.3,173.1,47.2z"/>
	<path class="st2" d="M200.1,380c-14.8,0.1-26.8-12-26.9-27.1c-0.1-14.8,12.2-27.4,26.7-27.4c14.9,0,27.7,12.7,27.6,27.3
		C227.4,368,215.4,379.9,200.1,380z"/>
	<path class="st3" d="M371.8,193.3c-0.1,14.4-11.6,25.6-26.3,25.7c-13.8,0.1-25.9-12.3-25.7-26.5c0.2-14.1,12.3-25.9,26.5-25.8
		C360.5,166.9,371.9,178.7,371.8,193.3z"/>
	<path class="st0" d="M80.5,193c0,14.8-10.9,25.5-25.7,26c-13.5,0.4-26.8-10.6-26.6-25.9c0.2-16,12.4-26.7,26-26.8
		C69.2,166.3,81.5,178.9,80.5,193z"/>
</g>
</svg>
