<?xml version="1.0" encoding="utf-8"?>
<svg version="1.1" id="Capa_1" xmlns="http://www.w3.org/2000/svg" xmlns:xlink="http://www.w3.org/1999/xlink" x="0px" y="0px"
	 viewBox="0 0 400 400" style="enable-background:new 0 0 400 400;" xml:space="preserve">
<style type="text/css">
	.st0{fill:#D2C1AF;}
	.st1{fill:#39342C;}
	.st2{fill:#D9CABB;}
	.st3{fill:#405D3B;}
	.st4{fill:#89B887;}
	.st5{fill:#E8DED4;}
</style>
<g>
	<path class="st0" d="M199.2,297.8c-44.8-1.4-81.9-36.4-81.7-83.8c0.2-44.3,34.5-83.2,82.5-82.7c48,0.5,82.7,36.8,82.7,83.2
		C282.6,262.4,244.3,296.5,199.2,297.8z"/>
	<g>
		<path class="st1" d="M229,95.5c-5.7,9.7-13.6,13.9-24.3,12.7c-3.3-0.4-6.6-0.3-9.9,0c-10.9,1.2-19-2.6-24.1-13.1
			c-5.7,7.3-6.8,15.1-4,23c1.7,4.9,0.4,6.8-4,8.1c-2.2,0.7-4.4,1.7-6.1,3.2c-3.3,2.6-4.8,2.1-6.6-1.8c-10.2-21-6.7-45.9,8.8-61.4
			c0.7-0.7,1.4-1.4,2.2-2c6.5-5.5,6.5-5.5,10.9,1.6c6.9,11.3,17.2,16.7,30.2,15.9c12.8-0.8,22.4-7.3,27.8-19.2
			c1.4-3.2,2.5-3,4.9-1.4c15.8,11,21.9,26.5,21.1,45.2c-0.4,7.9-2.9,15.3-6.2,22.6c-1.1,2.5-2.2,3.2-4.7,1.4
			c-2.7-1.9-5.6-3.6-8.6-4.7c-3.6-1.3-4.8-2.8-3.3-6.8C235.9,110.8,234.7,103.1,229,95.5z"/>
		<path class="st1" d="M199.8,20c15.1-0.1,27.5,12.4,27.6,27.7c0.1,15-12.1,27.5-27.1,27.7c-15.2,0.2-27.5-12.2-27.5-27.6
			C172.9,32.4,184.8,20.1,199.8,20z"/>
	</g>
	<g>
		<path class="st2" d="M95.1,154.7c7.5,8.5,9,17.3,4.5,27c-1.4,3-2.4,6.2-3,9.4c-2.2,10.7-8.4,17.3-19.9,18.8
			c5.2,7.7,12.3,11.1,20.7,10.9c5.2-0.1,6.6,1.7,6.5,6.3c0,2.3,0.3,4.7,1.1,6.8c1.5,3.9,0.5,5.2-3.7,5.8
			c-23.2,3.2-45.7-7.8-55.7-27.3c-0.4-0.9-0.9-1.8-1.2-2.7c-3.2-7.9-3.2-7.9,4.9-9.8c12.9-3.1,21.2-11.2,24.5-23.8
			c3.2-12.4,0-23.6-9.7-32.3c-2.6-2.3-2.1-3.4,0.2-5.1c15.3-11.6,32-12.6,49.5-6.1c7.4,2.8,13.7,7.5,19.5,12.8c2,1.8,2.3,3-0.1,4.9
			c-2.6,1.9-5.1,4.2-7.1,6.8c-2.4,3-4.1,3.7-7.5,1.1C111.8,152.8,104,151.6,95.1,154.7z"/>
		<path class="st2" d="M14.2,159.2c4.6-14.3,20.3-22.3,34.9-17.7c14.3,4.5,22.4,20,17.9,34.3c-4.5,14.5-20.1,22.4-34.8,17.6
			C17.7,188.6,9.7,173.4,14.2,159.2z"/>
	</g>
	<g>
		<path class="st3" d="M322.9,209.7c-11-2.4-17.4-8.7-19.6-19.2c-0.7-3.2-1.7-6.4-3.1-9.4c-4.5-10-3.4-18.9,5-27
			c-8.8-3.2-16.5-1.7-23.1,3.3c-4.1,3.2-6.3,2.5-9-1.3c-1.3-1.9-3-3.6-4.9-4.8c-3.5-2.3-3.5-3.9-0.4-6.9
			c16.9-16.2,41.5-20.6,61.1-10.6c0.9,0.4,1.7,0.9,2.6,1.4c7.3,4.5,7.2,4.5,1.8,10.8c-8.6,10.1-10.6,21.5-5.8,33.7
			c4.8,11.9,13.9,19,26.8,20.5c3.5,0.4,3.7,1.5,2.8,4.2c-5.6,18.4-18.5,29-36.5,34c-7.7,2.1-15.5,2-23.4,1.1c-2.7-0.3-3.7-1.1-2.8-4
			c1-3.1,1.7-6.4,1.8-9.7c0.1-3.8,1.2-5.4,5.4-5.3C310.5,221,317.5,217.4,322.9,209.7z"/>
		<path class="st3" d="M385.7,158.5c4.7,14.3-3.3,30-17.8,34.8c-14.3,4.7-29.9-3-34.7-17.2c-4.9-14.4,3.1-29.9,17.8-34.7
			C365.6,136.8,381,144.3,385.7,158.5z"/>
	</g>
	<g>
		<path class="st4" d="M244.5,329c-1.1-11.3,2.9-19.2,12.2-24.5c2.8-1.6,5.6-3.6,8-5.8c8.1-7.3,16.9-9.1,27.2-3.5
			c0.3-9.3-3.4-16.2-10.3-21c-4.3-3-4.4-5.2-1.5-8.9c1.4-1.8,2.5-4,3.1-6.1c1.1-4.1,2.6-4.5,6.4-2.5c20.6,11.1,32.4,33.1,29,54.8
			c-0.2,1-0.3,1.9-0.6,2.9c-2,8.3-2.1,8.3-9.8,5.1c-12.2-5.1-23.7-3.5-33.8,4.9c-9.9,8.2-13.8,19.1-11.2,31.8c0.7,3.4-0.3,4-3.2,4
			c-19.3,0.4-33.3-8.6-43.6-24.2c-4.4-6.6-6.7-14.1-8.3-21.9c-0.6-2.7-0.1-3.8,3-3.9c3.3,0,6.6-0.4,9.7-1.3c3.7-1,5.5-0.6,6.7,3.5
			C229.9,320.6,235.4,326.2,244.5,329z"/>
		<path class="st4" d="M312.5,372.8c-12.1,8.9-29.6,6.1-38.6-6.2c-8.9-12.1-6.4-29.4,5.6-38.3c12.2-9.1,29.4-6.3,38.5,6.2
			C327,347,324.6,364,312.5,372.8z"/>
	</g>
	<g>
		<path class="st5" d="M111.3,296.7c10.4-4.5,19.2-3.2,27.1,4c2.4,2.2,5.2,4.2,8,5.8c9.5,5.4,13.8,13.3,11.8,24.8
			c9-2.6,14.4-8.3,16.8-16.3c1.5-5,3.6-5.8,8-4.2c2.1,0.7,4.5,1.2,6.8,1c4.2-0.2,5.1,1.1,4.3,5.3c-4.1,23-21.5,41.1-43.2,44.5
			c-1,0.2-2,0.3-2.9,0.4c-8.5,0.6-8.5,0.6-7.8-7.7c1.1-13.2-4-23.6-15.1-30.6c-10.9-6.9-22.4-7.2-33.7-0.8c-3,1.7-3.8,1-4.8-1.8
			c-6.3-18.2-2.1-34.3,9.5-49c5-6.2,11.4-10.7,18.3-14.6c2.4-1.4,3.6-1.3,4.6,1.6c1,3.1,2.4,6.2,4.2,8.9c2.1,3.2,2.3,5.1-1.3,7.5
			C114.8,280.3,111.2,287.3,111.3,296.7z"/>
		<path class="st5" d="M90.7,375c-12.2-8.8-15-26.2-6.1-38.6c8.7-12.2,26-15.1,38.2-6.5c12.4,8.8,15.1,26,6,38.5
			C119.7,380.8,102.8,383.7,90.7,375z"/>
	</g>
</g>
</svg>
