<?xml version="1.0" encoding="utf-8"?>
<svg version="1.1" id="Capa_1" xmlns="http://www.w3.org/2000/svg" xmlns:xlink="http://www.w3.org/1999/xlink" x="0px" y="0px"
	 viewBox="0 0 400 400" style="enable-background:new 0 0 400 400;" xml:space="preserve">
<style type="text/css">
	.st0{fill:#D4C3B0;}
	.st1{fill:#39342C;}
	.st2{fill:#466144;}
</style>
<g>
	<path class="st0" d="M199.7,274.7c-40.5,0.7-72.1-34-72.5-71.6c-0.4-38.2,29.6-74,72.6-74c41.3,0,72.9,33.7,73.1,73.3
		C273,242,238.3,276,199.7,274.7z"/>
	<path class="st1" d="M166.3,102.1c-5.4,6.8-5.7,13.8-4.6,20.9c0.4,2.7,0.1,4.1-2.3,5.6c-3.9,2.4-7.6,5.2-11.2,8.1
		c-2.1,1.7-3.4,2.1-4.8-0.8c-10.2-21.8-8.9-52.2,14.5-70.2c4.7-3.6,5.1-3.3,8,2c7.3,13.3,18.6,20.4,33.9,19.5
		c14-0.8,24.5-8.1,30.5-20.7c2.2-4.7,3.8-3.7,6.9-1.5c16.7,11.6,25.9,35.1,21.5,55.4c-1.1,5.2-2.3,10.3-4.7,15.2
		c-1.2,2.4-2.1,2.7-4.2,0.8c-3.2-2.8-6.5-5.5-10.5-7.2c-3.1-1.3-4.2-3.2-3.8-6.6c0.9-7.1-0.1-13.8-4.7-19.6c-0.3,0-0.8-0.1-0.9,0.1
		c-5.7,9.7-14,14.1-25.3,13.1c-3.9-0.3-7.8-0.3-11.7,0C181.3,117.3,172,113.9,166.3,102.1z"/>
	<path class="st2" d="M232.1,300c4.6-5.8,6.9-12.3,5-19.8c-0.6-2.3-0.3-3.9,2.3-5.1c4.2-1.9,8-4.6,11.5-7.6c1.7-1.4,2.7-1.9,3.8,0.6
		c11.3,25.8,5.2,52.8-16.3,68c-2.9,2-4.3,2.3-6.1-1.5c-6.2-13-16.9-20.1-31.2-20.3c-14.5-0.2-25.6,6.8-32.1,19.8
		c-2.2,4.5-3.7,3.5-6.7,1.4c-17.6-12.4-25.2-36-18.5-58.4c1.1-3.5,1.9-7.2,4.2-10.4c5,3.2,9.3,7.2,14.7,9.5c2.7,1.1,1.7,3.2,1.4,5
		c-0.9,6.9,0.6,13,4.9,18.5c2.1-0.5,2.2-2.6,3.1-3.9c4.5-6,10-9.9,17.9-9.6c6.4,0.2,12.8,0.3,19.2-0.1c9.4-0.5,15.9,3.7,20.7,11.4
		C230.5,298.6,230.8,299.8,232.1,300z"/>
	<path class="st1" d="M227.6,50.5c-0.1,17-13,29.8-30,29.7c-16.5-0.1-30.1-13.7-30.1-30.1c0.1-17.1,13-30.2,29.7-30.1
		C215,20.1,227.7,32.8,227.6,50.5z"/>
	<path class="st2" d="M200.8,321.4c15.7,0,28.8,13,28.9,28.7c0.1,16.6-12.6,29.8-28.9,29.8c-16.5,0-29.7-13.2-29.5-29.9
		C171.5,334,184.4,321.5,200.8,321.4z"/>
</g>
</svg>
