<?xml version="1.0" encoding="utf-8"?>
<svg version="1.1" id="Capa_1" xmlns="http://www.w3.org/2000/svg" xmlns:xlink="http://www.w3.org/1999/xlink" x="0px" y="0px"
	 viewBox="0 0 400 400" style="enable-background:new 0 0 400 400;" xml:space="preserve">
<style type="text/css">
	.st0{fill:#D3C0AE;}
	.st1{fill:#486146;}
	.st2{fill:#544D43;}
</style>
<g>
	<path class="st0" d="M100,171.8c3,2.7,6,4.6,8.1,7.6c2.1,2.9,3.7,6.1,3.8,9.5c0.4,6.9,0.5,13.9,0,20.8c-0.5,6.6-4.6,11.5-9.7,15.4
		c-2.1,1.6-2,2,0.4,3c4.6,2,9.1,1.9,13.7,0.6c1.6-0.4,3.2-0.9,4.8-1.4c1.2-0.3,2.6-0.4,2.9,0.8c0.6,2.7,4.2,3.7,3.5,7.2
		c-0.2,0.8,0.9,2,1.4,3c2.3,4.3,2,5.1-2.2,7.7c-5.6,3.5-11.6,5.6-18,7.1c-9.1,2.3-18.3,2.2-27.1-0.8c-9.9-3.4-17.6-9.9-22.6-19.3
		c-0.4-0.7-0.6-1.5-1.1-2c-1.7-1.8-0.7-2.5,0.9-3.5c11.2-6.9,16.5-17.3,16-30.2c-0.4-11.3-5.5-20.7-14.9-27.3
		c-2.5-1.8-2.5-3.1-0.9-5.4c4.5-6.5,9.2-12.7,16.6-16.2c7.9-3.6,16.1-5.2,25-4.4c9.7,0.9,18.5,3.7,26.7,8.8c4.1,2.5,4.5,3.5,2.3,7.8
		c-1.5,2.9-2.9,5.8-4.1,8.8c-0.7,1.8-2.1,2.8-4.7,1.8C114.1,169.1,107.2,167.8,100,171.8z"/>
	<path class="st0" d="M300.2,169.8c-5.1-3.3-10.4-3.3-15.7-1.7c-1,0.3-2.2,0.5-3.2,0.9c-4.6,2.2-4.9,1.5-7-3.4
		c-1.1-2.6-2.2-5.1-3.7-7.5c-1.4-2.4-1.6-4.3,1.1-6.3c7.8-5.5,16.4-8.2,25.7-9.5c8.2-1.2,16-0.2,23.7,2.6
		c9.3,3.3,15.8,9.9,20.9,18.2c1.3,2.2,1.1,3.4-1.1,4.8c-7.4,4.6-12.2,11.3-14.5,19.5c-4,14.5,1.2,28.6,13.5,37.6
		c3.8,2.8,3.7,2.7,1.4,6.7c-6.9,12-17.4,19.1-31,20.9c-9.7,1.3-19.3-0.1-28.5-4.1c-3.6-1.6-6.8-3.7-10-5.9c-1.6-1.1-2.3-2-1.1-4
		c1.8-3.1,3.1-6.4,4.4-9.8c1.1-2.8,2.8-3.6,5.7-2.9c4.7,1.2,9.3,2.5,14.2,1.1c0.4-0.1,0.9-0.2,1.3-0.4c1.1-0.6,2.7-1,3.1-1.8
		c0.4-1.2-1.4-1.7-2.2-2.5c-1.6-1.7-3.5-3.1-5.1-4.8c-2.3-2.4-3.7-5.3-3.7-8.7c0-6.2,0.4-12.4-0.1-18.5c-0.7-8.2,3.1-13.9,9.2-18.5
		C298.3,171.2,299.1,170.6,300.2,169.8z"/>
	<path class="st1" d="M170.3,102.7c-4,5.6-4.7,11.7-3.3,18.1c1.3,5.6,1.3,5.6-3.9,8.3c-2.9,1.5-5.7,3.1-8.4,4.9
		c-2.2,1.4-3.4,1.3-4.7-1.1c-6.4-11.3-8.5-23.4-7.5-36.2c0.8-10.2,4.9-18.8,11.7-26.3c3.1-3.4,6.8-5.6,10.5-8.1
		c2.1-1.4,3.2-1.2,4.5,1.3c12.7,23.6,44.3,25.1,59.4,3c0.3-0.4,0.5-0.7,0.7-1.1c2.8-4.5,2.8-4.6,7.3-1.6
		c11.7,7.8,18.5,18.5,19.8,32.9c1,10.5-0.8,20.3-4.3,30c-0.8,2.2-2,4.4-3.4,6.3c-1.1,1.6-2.3,2.9-4.7,0.8c-2.6-2.2-5.8-3.9-9-5.2
		c-3.4-1.4-4.4-3.2-3.3-6.7c1.6-5.3,1.2-10.6-1-15.8c-1.5-3.6-1.8-3.7-4-0.6c-4.7,6.6-10.7,10.2-19.1,9.7c-5.6-0.3-11.2-0.2-16.8,0
		c-8.2,0.3-14.2-3.1-18.7-9.8C171.6,104.6,171,103.8,170.3,102.7z"/>
	<path class="st1" d="M170.1,298.2c2.5-2.6,3.4-5.7,5.9-7.8c4.8-3.9,10.2-5.2,16.2-5c6,0.2,12.1,0.1,18.1,0.2
		c6.9,0.2,11.9,3.8,15.8,9.2c0.8,1,1.3,3,2.6,2.8c1.3-0.2,1.8-2.2,2.2-3.5c1.6-5.2,1.7-10.4,0-15.6c-0.9-2.6-0.6-4.1,2.2-5.1
		c3.9-1.4,7.5-3.5,10.7-6c2.1-1.7,3.5-1.2,4.6,0.8c4.2,7.3,6.8,15.1,7.7,23.6c0.9,8.2,0.4,16.2-2.3,23.9
		c-3.5,10-10.4,17.3-19.5,22.6c-2.1,1.2-2.9,1.1-4.2-1.2c-6.7-12.1-16.8-19.1-30.9-19.1c-14,0-24,7-30.5,19
		c-1.3,2.4-2.2,2.6-4.4,1.3c-11.7-6.9-19.3-16.6-21.7-30.1c-2.4-13.4,0.4-26.1,6-38.2c2.1-4.5,3.2-4.6,7.4-1.9c2.9,1.9,5.7,3.9,9,5
		c2.9,1,3.3,2.7,2.4,5.4c-1.7,5.3-2.3,10.7,0.5,15.9C168.6,295.6,169.3,296.8,170.1,298.2z"/>
	<path class="st1" d="M199.5,20c15.2,0.1,26.6,12.2,26.8,26.8c0.2,14.8-12.3,27.3-26.9,26.9c-17.9-0.5-27.4-14.4-27-27.1
		C172.9,32.6,181.3,20.2,199.5,20z"/>
	<path class="st1" d="M198.6,380c-15.9,0-27-14-26.3-27.3c0.7-13.7,10.3-26.4,27.6-26.3c15,0.1,26.7,12.7,26.5,27.4
		C226.3,367.7,213.3,380.9,198.6,380z"/>
	<path class="st0" d="M13.3,198.5c-0.9-13.8,12.2-27,26.7-26.7c15.3,0.4,26.6,11.8,26.6,27.7c0,13.8-13,26.8-27.4,26.2
		C25.8,225.2,13,215.2,13.3,198.5z"/>
	<path class="st0" d="M360.6,223.3c-15,0.2-26.7-11.2-27.4-25.6c-0.6-14,9.8-27.8,27-28.2c13.7-0.3,26.5,12.8,26.5,27.2
		C386.8,210.2,374.8,224.2,360.6,223.3z"/>
	<path class="st2" d="M47.2,235.4c2.2-0.5,3.5,0.4,4.5,2.4c4.3,7.6,9.8,14.1,17.3,18.9c2.4,1.5,2.7,3.7,1.1,6.1
		c-1.4,2.1-4.5,2.7-6.7,1.3c-7-4.5-12.6-10.5-17.2-17.4c-0.9-1.3-1.5-2.9-2.6-3.9c-1.6-1.5-1.9-3.3-1.2-5.1
		C43.2,235.8,45,235,47.2,235.4z"/>
	<path class="st2" d="M48,163.5c-1.6-0.3-3.3-0.5-4.9-1c-2.1-0.6-1.8-2.2-1.3-3.8c2-5.6,5.9-9.9,9.6-14.2c3-3.5,6.6-6.6,10.6-9.1
		c2.7-1.7,5.8-1.2,7.3,1.2c1.5,2.3,0.8,4.4-2.1,6.4c-7,4.7-12.3,10.9-16.4,18.2C50.2,162.3,49.9,163.8,48,163.5z"/>
	<path class="st2" d="M335.9,261.5c-1.9,0-3.6,0-4.2-2.4c-0.5-2.1-0.4-3.9,1.7-5.3c7.4-5,13.1-11.5,17.3-19.4c1-1.9,4.7-2.5,7.1-1.2
		c2.2,1.2,2.4,3.2,1.3,5.2c-5,8.6-10.9,16.3-19.2,21.9C338.5,261.3,337.3,261.6,335.9,261.5z"/>
	<path class="st2" d="M352.6,160.9c-1.4,0.3-1.7-1.3-2.3-2.4c-4-7.3-9.2-13.4-16.2-18c-3.6-2.4-4.1-4.3-1.9-7
		c1.7-2.1,5.7-2.2,8.2-0.2c6.4,5.2,12.1,11.2,16.6,18.1c0.3,0.5,0.6,0.9,0.8,1.4c0.8,2,2.8,3.9,1.3,6.1
		C357.7,161,355.1,160.4,352.6,160.9z"/>
	<path class="st2" d="M234.6,46.5c0-3.8,0.6-4.1,4.4-3c5.2,1.4,9.1,5,13.3,8c3.1,2.3,5.9,4.9,8.1,8.1c1.8,2.6,1.4,5.5-0.9,7.1
		c-2.3,1.7-4.4,1.2-6.5-1.5c-3.8-4.8-8.7-8.4-14-11.4C234.7,51.4,234.6,51.4,234.6,46.5z"/>
	<path class="st2" d="M234.6,353.4c-0.1-3.1,0.7-5.5,4.5-7.2c5.6-2.6,10.4-6.7,14.1-11.7c1.6-2.2,3.5-3.3,6-1.6
		c2.4,1.6,3.2,4.8,1.5,7c-5.7,7.6-13.1,13.3-21.9,17C235.8,358.1,234.6,356.9,234.6,353.4z"/>
	<path class="st2" d="M164,352.5c-0.3,1.4,0.8,3.6-1.1,4.4c-2,0.8-3.9,0-5.9-1.1c-5.9-3.1-10.9-7.2-15.7-11.7
		c-2.3-2.2-3.8-4.5-3.6-7.9c0.1-2.2,1.2-3.2,3-3.8c1.9-0.6,3.6-0.1,4.7,1.6c4.1,6.3,10,10.6,16.7,13.6
		C164.7,348.8,163.9,350.6,164,352.5z"/>
	<path class="st2" d="M164,48.6c0.8,2.5-0.7,3.6-3,4.7c-5.8,2.8-10.7,6.9-14.8,11.9c-1.8,2.1-3.6,3.7-6.4,1.8
		c-2-1.3-2.8-5.6-0.9-7.6c3.5-3.6,6.5-7.9,11.1-10.3c2.7-1.4,4.9-3.6,7.8-4.7C163.6,42.2,163.8,42.3,164,48.6z"/>
	<path class="st0" d="M200.5,129.7c-42.1,0.2-70.9,31.4-71.2,70.3c-0.3,38.7,30.9,71,70.1,71c39.7,0.3,70.8-32.4,71.5-69.9
		C271.7,163.7,241.6,129.5,200.5,129.7z M200.2,236.5c-6.2,0-10.5-4.3-10.5-10.6c0-6.2,4.3-10.5,10.5-10.5c6.3,0,10.6,4.3,10.6,10.5
		C210.8,232.2,206.4,236.5,200.2,236.5z M209.1,209.9h-17.2c0-15.3,11.3-17,11.3-24.9c0-3-1.4-4.3-4.5-4.3c-3.8,0-5.6,2.6-5.6,8.1
		h-17.7c0-16.6,9.4-26.3,25.4-26.3c14.9,0,23.7,6.9,23.7,18.7C224.5,196.1,209.1,199.1,209.1,209.9z"/>
</g>
</svg>
