<?xml version="1.0" encoding="utf-8"?>
<svg version="1.1" id="Capa_1" xmlns="http://www.w3.org/2000/svg" xmlns:xlink="http://www.w3.org/1999/xlink" x="0px" y="0px"
	 viewBox="0 0 400 400" style="enable-background:new 0 0 400 400;" xml:space="preserve">
<style type="text/css">
	.st0{fill:#D4C3B0;}
	.st1{fill:#466144;}
</style>
<g>
	<path class="st0" d="M200,168.1c53.7-2,106.5,45.2,106.2,105.9C305.9,331.5,260,379.4,199.7,380c-59.1,0.6-105.3-50.4-105.8-105.5
		C93.3,216.9,143.8,165.7,200,168.1z"/>
	<path class="st1" d="M279.1,185.3c-7.4-6.6-14.4-12.3-22.6-16.4c-2.7-1.3-2.9-3.3-2.8-5.7c0.5-8.8-3.3-16-8.1-23.1
		c-2.8,0.6-3.3,3.2-4.7,4.8c-7.6,8.8-16.4,13.9-28.6,12.2c-6.1-0.8-12.5-1.2-18.6-0.5c-20.6,2.4-26.2-1.6-39.1-17.3
		c-5.3,6.7-8.7,14-8.4,22.5c0.1,3.9-1,6.1-4.6,7.8c-6.7,3.1-12.3,7.8-17.4,12.9c-3.3,3.3-4.2,1.9-5.6-1.5
		c-13.3-32-1.7-73.1,26.2-92.9c4.4-3.2,6.8-4.5,10.2,1.9c9.4,17.6,24.6,27.1,44.9,26.9c20.5-0.2,35.9-9.4,45.4-27.5
		c2.7-5.1,4.5-4.5,8.4-2C283.7,107.2,294.8,149,279.1,185.3z"/>
	<path class="st1" d="M156.6,63.7c0-24.3,19.4-43.9,43.4-43.7c23.6,0.1,42.8,19.7,42.7,43.6c-0.1,23.4-19.3,43.1-42.2,43.4
		C176.4,107.3,156.6,87.8,156.6,63.7z"/>
</g>
</svg>
