<?xml version="1.0" encoding="utf-8"?>
<svg version="1.1" id="Capa_1" xmlns="http://www.w3.org/2000/svg" xmlns:xlink="http://www.w3.org/1999/xlink" x="0px" y="0px"
	 viewBox="0 0 400 400" style="enable-background:new 0 0 400 400;" xml:space="preserve">
<style type="text/css">
	.st0{fill:#486146;}
	.st1{fill:#85B684;}
	.st2{fill:#D3C0AE;}
	.st3{fill:#544D43;}
</style>
<g>
	<path class="st0" d="M322,296c-0.9,0-1.3,0.1-1.7,0c-3.7-0.9-8,0.7-11-0.8c-3-1.5-3.8-6.1-6.2-9c-10.4-12.1-28.8-16.3-46.1-10.4
		c-10.6,3.6-19,10.3-26.4,18.3c-11.4,12.3-21.1,25.9-31.8,38.7c-9.3,11.3-19.8,21.2-33.1,27.7c-12.8,6.2-26.2,7.8-40.2,7.2
		c-8-0.3-15.4-2.8-23-4.7c-2.7-0.7-2.6-1.6-1.3-3.4c0.9-1.3,2-2.6,2.3-4.1c1.2-5.3,4.5-4.2,8.1-3.3c15.4,4.1,30.7,4,45.4-2.3
		c13.6-5.7,24-15.5,33-27c10.6-13.5,21-27.2,32.7-39.8c5.5-5.9,11.5-11.5,18.4-15.1c11.8-6.1,24.7-9.7,38.5-7.4
		c9.1,1.5,17.6,4.1,25.2,9.8C313.5,277.1,319.1,285.4,322,296z"/>
	<path class="st0" d="M116.7,20c22.1,0.2,39.9,12.4,47.1,32.6c3.4,9.7,8,18.5,17.1,24.4c10.6,6.8,22.1,6.8,33.8,4.7
		c10.5-1.9,19.7-7.2,28.8-12.4c14.3-8,29.3-13.3,45.9-13.2c2.6,0,3.6,0.6,3.4,3.3c-0.1,2.4,0,4.9,0.6,7.2c0.7,2.5-0.4,2.6-2.3,2.5
		c-14.1-0.6-26.8,4-38.9,10.7c-9.9,5.5-19.8,11.2-31,13.9c-18.2,4.3-35.6,3.4-51.1-8.6c-7.4-5.7-12.3-13.2-15.8-21.8
		c-1-2.3-1.7-4.8-2.7-7.1c-10.4-24.5-39.8-31.2-59.7-13.5c-1.2,1.1-2.1,1.1-3.5,0.5c-2.7-1.1-5.4-2.2-8.2-2.7
		c-2.7-0.5-2.7-1.3-1.2-3.3c5.6-7.8,13.3-12.2,22.2-15C106.4,20.7,111.8,19.8,116.7,20z"/>
	<path class="st1" d="M223.4,149.3c14.9-1.2,31.4,13.6,31.4,31.8c0,17.1-16,33-33,31.8c-16.3-1.2-30.5-13.3-30.8-31.9
		C190.9,165.8,204.6,148.3,223.4,149.3z"/>
	<path class="st0" d="M69.1,305.3c17.4,1,30.7,13.4,31.1,31.5c0.4,18-14.8,32.1-31.6,32.5c-14.8,0.3-31.2-15.2-31.7-28.3
		C35.9,317.1,54.1,305.1,69.1,305.3z"/>
	<path class="st2" d="M102.9,79.3c0.8,15.9-13.8,32.1-31.5,31.6c-18-0.5-29.6-12.7-31.1-28.8c-1.8-18.8,13.4-34.6,31.5-34.6
		C89.7,47.5,103.7,63.1,102.9,79.3z"/>
	<path class="st2" d="M311.1,366.8c-12.5,0.2-28.5-14-28.6-30.6c-0.1-18.1,13.2-32.5,30.4-32.7c17.5-0.2,32,13.7,32.2,30.8
		C345.4,350.8,332.3,367.3,311.1,366.8z"/>
	<path class="st3" d="M331.5,27.5c16.8-1.2,31.9,13.9,31.7,31.8c-0.2,17.5-15.1,31-31.2,30.9C314.5,90.1,300.4,76,300.3,59
		C300.3,41.2,315,26.4,331.5,27.5z"/>
	<path class="st0" d="M128.6,240c12.4-0.4,24.9,1,37.3-0.6c15.3-2,27.5-9,34.5-23.4c0.9-1.8,1.8-1.8,3.4-1.1c2.6,1.2,5.3,2.5,8,3.6
		c2.1,0.8,1.1,2,0.5,3.1c-4.6,10.1-11.9,17.6-21.3,23.3c-9.8,5.9-20.4,8.1-31.7,8.1c-19.4,0-38.8-0.1-58.1,0c-9.8,0.1-19.1,2-27.2,8
		c-11.5,8.6-15.7,20.3-13.9,34.3c0.2,1.7,0,2.8-1.8,3.4c-2.8,1-5.5,2.1-8.1,3.3c-1.8,0.8-2.3,0.3-2.6-1.5c-0.5-3.4-0.5-6.7-0.8-10.1
		c-0.8-11.3,2.9-21.3,9.4-30.2c8.2-11.2,19.6-17.2,33.3-19.2C102.4,239.1,115.5,240.5,128.6,240z"/>
	<path class="st0" d="M275.6,167.4c11.3,0.4,22.4-0.9,32.9-5.5c21.8-9.7,33.2-29.1,32-53.8c-0.2-3.4-1.8-7.6-0.4-10.1
		c1.4-2.5,6.3-2.1,9.1-4.2c1.4-1,2.4-0.4,2.7,1.4c1.6,9.1,2.2,18.2,0.9,27.4c-0.9,6.5-2.7,12.7-5.4,18.6
		c-4.5,9.9-11.2,17.9-19.7,24.6c-8.6,6.8-18.7,10.7-29.1,13.2c-9.2,2.3-18.8,2-28.4,1.6c-6.8-0.3-6.8,0-8-6.7
		c-1.2-6.4-1.2-6.4,5.3-6.4C270.2,167.4,272.9,167.4,275.6,167.4z"/>
	<path class="st0" d="M67.3,128.8c-0.1,7.4,0.6,14.7,3.4,21.6c4.7,11.6,12.9,18.7,25.9,19.5c3.1,0.2,5.4,1.4,6.4,4.5
		c0.9,2.7-0.1,4.9-2,6.8c-0.7,0.7-1.4,1.2-2.4,1.3c-8.5,0.5-16.5-0.5-23.6-6c-6.8-5.3-12.8-11.1-16-19.2c-3-7.5-4.8-15.3-4.5-23.5
		c0.2-5.2,0.3-10.4,0.2-15.6c0-2.5,0.8-2.8,2.8-1.9c0.4,0.2,0.8,0.3,1.1,0.4c2.9,0.9,7.1,0.9,8.4,2.9
		C68.5,121.7,67.3,125.6,67.3,128.8z"/>
	<path class="st0" d="M186.5,166.7c-6.5-4.4-13.1-7.9-21.1-7.5c-3.2,0.1-6.2,1-9.3,1.9c-4.5,1.3-7.8-0.1-8.9-3.6
		c-1.1-3.4,0.7-7.1,4.7-8.5c13.7-4.9,26.7-3.3,38.8,4.9c1.5,1,2.3,1.9,0.8,3.7C189.4,160.3,188,163.4,186.5,166.7z"/>
	<path class="st0" d="M299.2,372c-7.9,5.1-16.1,8-25.2,8c-3.6,0-7.5-3.4-7.4-6.3c0.1-2.8,3.8-6,7.1-6.3c4.3-0.4,8.8-0.4,12.4-3.3
		c0.7-0.5,1.4-0.5,2,0.3C290.8,367.9,295.1,369.4,299.2,372z"/>
	<path class="st0" d="M222.5,349c0.1,3.7-2.6,6.6-6.1,6.5c-3.7,0-8.7-4.8-8.7-8.2c0-3.6,3-6.4,6.8-6.3
		C218.1,341,222.4,345.4,222.5,349z"/>
	<path class="st0" d="M231.8,366.8c-2.9-0.1-5.5-3.1-5.5-6.5c0-3.6,2.7-6.5,6.2-6.4c3.5,0,6.6,3.2,6.6,6.7
		C239.1,364.3,236.1,366.9,231.8,366.8z"/>
	<path class="st0" d="M135,170.2c-3.3-0.1-5.8-2.7-5.7-5.9c0.1-3.7,4-7,8-6.9c3.2,0.1,5.3,2.8,5.1,6.4
		C142.1,168,139.5,170.3,135,170.2z"/>
	<path class="st0" d="M254.9,377.1c-3.9,0-6.9-2.7-7-6.2c0-3.7,2.5-6.5,6-6.6c3.9-0.1,7.4,3.1,7.3,6.8
		C261.2,374.2,258.1,377.2,254.9,377.1z"/>
	<path class="st0" d="M115.2,167.1c3.3,0.1,6,2.9,6,6.2c0,3.2-3.1,6.4-6.3,6.5c-3.8,0-6.6-2.5-6.5-5.9
		C108.4,169.8,111.3,167,115.2,167.1z"/>
</g>
</svg>
