<?xml version="1.0" encoding="utf-8"?>
<svg version="1.1" xmlns="http://www.w3.org/2000/svg" xmlns:xlink="http://www.w3.org/1999/xlink" x="0px" y="0px"
	 viewBox="0 0 430.6 376.7" style="enable-background:new 0 0 430.6 376.7;" xml:space="preserve">
<style type="text/css">
	.st0{fill:none;stroke:#89BA86;stroke-width:9;stroke-miterlimit:10;}
	.st1{fill:#3E5E3B;}
</style>
<g id="Capa_1">
	<g>
		<polygon class="st0" points="290.6,6.7 140,6.7 33.6,113.1 33.6,263.6 140,370.1 290.6,370.1 397,263.6 397,113.1 		"/>
		<path class="st1" d="M282.2,26.7H148.3l-94.7,94.7v133.9l94.7,94.7h133.9l94.7-94.7V121.4L282.2,26.7z M157.3,299.1
			c-17.6,0.2-32-0.3-32-1.1c0-0.6,2.8-2.6,6-4.4c7.4-4,13.3-13.9,14.6-25.1l1-8.3l4.4,7.8c2.4,4.2,8.3,11.3,12.8,15.5
			c4.5,4.4,12.1,9.5,16.8,11.7l8.4,3.9H157.3z M302.5,245.9c-5,21.4-7.6,34.8-8.6,42.9l-1.1,9.7L259,299c-29.8,0.3-35.6,0-46.9-2.9
			c-25.9-6.5-46.4-23.1-58.1-46.9l-6.8-13.8l-0.8-68c-0.6-57.9-1.3-68.8-3.4-73.8c-2.8-6-10-12.8-13.8-12.8c-1.1,0-2.6-0.8-3.1-1.6
			c-0.6-1.1,14.2-1.6,43.7-1.6c29.4,0,44.3,0.5,43.7,1.6c-0.5,0.8-2.4,1.6-4,1.6c-1.8,0-5.7,2.6-8.7,5.7
			C190.2,97,190,98.5,190,197.7v88.7h20.7c28.6,0,39.2-1.9,54.5-9.5c12.5-6.1,26.2-18.3,35.3-30.9l2.9-4L302.5,245.9z M278.7,216.1
			c0-18-8.7-26.6-26.7-26.7c18,0,26.6-8.6,26.7-26.6c0,18,8.6,26.6,26.6,26.6C287.3,189.4,278.7,198.1,278.7,216.1z"/>
	</g>
</g>
<g id="Capa_2">
</g>
</svg>
